<svg width="466" height="89" viewBox="0 0 466 89" fill="none" xmlns="http://www.w3.org/2000/svg">
<path d="M0.896 89L14.336 0.799997H49.784L62.72 89H39.76L37.688 71.472H25.928L23.856 89H0.896ZM30.632 23.088L28.784 54H35L33.264 23.032C32.872 21.128 32.704 18.496 32.76 16.48V14.576H31.08L31.192 16.536C31.248 18.552 31.024 21.184 30.632 23.088ZM89.0829 47.504V89H66.7949V0.799997H107.339L117.307 69.848H118.987L117.027 45.936C116.859 44.984 116.803 43.64 116.803 42.632V0.799997H139.147V89H99.0509L88.4109 17.992H86.6749L88.8589 44.256C89.0269 45.208 89.0829 46.552 89.0829 47.504ZM143.41 89V0.799997H175.778C185.298 0.799997 191.85 4.048 195.378 10.6C198.906 17.152 200.642 28.576 200.642 44.816C200.642 61.112 198.906 72.536 195.378 79.088C191.85 85.696 185.298 89 175.778 89H143.41ZM165.754 70.632H173.034C174.826 70.632 176.17 69.792 177.066 68.168C177.906 66.544 178.354 58.76 178.354 44.816C178.354 30.984 177.906 23.2 177.066 21.576C176.17 19.952 174.826 19.168 173.034 19.168H165.754V70.632ZM266.006 28.464V89H243.494V22.36H229.046V0.799997H280.454V22.36H259.678V24.04H261.526C264.214 24.04 266.006 25.776 266.006 28.464ZM284.661 89V0.799997H307.005V35.856H319.325V0.799997H341.669V89H319.325V55.288H307.005V89H284.661ZM345.964 89V0.799997H389.196V22.36H368.476V33.84H388.86V55.4H368.476V67.44H389.196V89H345.964ZM415.773 47.504V89H393.485V0.799997H434.029L443.997 69.848H445.677L443.717 45.936C443.549 44.984 443.493 43.64 443.493 42.632V0.799997H465.837V89H425.741L415.101 17.992H413.365L415.549 44.256C415.717 45.208 415.773 46.552 415.773 47.504Z" fill="#ffffff"/>
</svg>
